<svg width="98" height="98" viewBox="0 0 98 98" fill="none" xmlns="http://www.w3.org/2000/svg">
<path d="M49 98C76.062 98 98 76.062 98 49C98 21.938 76.062 0 49 0C21.938 0 0 21.938 0 49C0 76.062 21.938 98 49 98Z" fill="url(#paint0_linear_9_246)"/>
<path d="M73.7774 44.3639V43.132C73.7774 42.9702 73.7456 42.81 73.6837 42.6605C73.6218 42.511 73.5311 42.3752 73.4167 42.2608C73.3023 42.1464 73.1664 42.0556 73.0169 41.9937C72.8674 41.9318 72.7072 41.9 72.5454 41.9001H50.9877V38.8205H56.5294C57.1828 38.8205 57.8095 38.5609 58.2716 38.0988C58.7336 37.6367 58.9932 37.0101 58.9932 36.3566V26.5016C58.9932 25.8481 58.7336 25.2214 58.2716 24.7594C57.8095 24.2973 57.1828 24.0377 56.5294 24.0377H41.7466C41.0932 24.0377 40.4665 24.2973 40.0044 24.7594C39.5423 25.2214 39.2827 25.8481 39.2827 26.5016V36.3566C39.2827 37.0101 39.5423 37.6367 40.0044 38.0988C40.4665 38.5609 41.0932 38.8205 41.7466 38.8205H47.2896V41.9001H25.7319C25.5701 41.9 25.4099 41.9318 25.2604 41.9937C25.1109 42.0556 24.9751 42.1464 24.8607 42.2608C24.7463 42.3752 24.6555 42.511 24.5937 42.6605C24.5318 42.81 24.4999 42.9702 24.5 43.132V44.3639C24.4999 44.5257 24.5318 44.686 24.5937 44.8354C24.6555 44.9849 24.7463 45.1208 24.8607 45.2352C24.9751 45.3496 25.1109 45.4403 25.2604 45.5022C25.4099 45.5641 25.5701 45.5959 25.7319 45.5959H33.7393V48.6764H29.4277C28.7743 48.6764 28.1476 48.936 27.6855 49.398C27.2235 49.8601 26.9639 50.4868 26.9639 51.1403V60.9944C26.9639 61.6478 27.2235 62.2745 27.6855 62.7366C28.1476 63.1986 28.7743 63.4582 29.4277 63.4582H41.7466C42.4001 63.4582 43.0268 63.1986 43.4888 62.7366C43.9509 62.2745 44.2105 61.6478 44.2105 60.9944V51.1393C44.2105 50.4859 43.9509 49.8592 43.4888 49.3971C43.0268 48.9351 42.4001 48.6755 41.7466 48.6755H37.4351V45.5959H60.8409V48.6764H56.5294C55.8759 48.6764 55.2492 48.936 54.7871 49.398C54.3251 49.8601 54.0655 50.4868 54.0655 51.1403V60.9944C54.0655 61.6478 54.3251 62.2745 54.7871 62.7366C55.2492 63.1986 55.8759 63.4582 56.5294 63.4582H68.8482C69.5017 63.4582 70.1284 63.1986 70.5905 62.7366C71.0525 62.2745 71.3121 61.6478 71.3121 60.9944V51.1393C71.3121 50.4859 71.0525 49.8592 70.5905 49.3971C70.1284 48.9351 69.5017 48.6755 68.8482 48.6755H64.5367V45.5959H72.544C72.7059 45.5961 72.8663 45.5644 73.016 45.5026C73.1656 45.4408 73.3016 45.3501 73.4162 45.2357C73.5307 45.1212 73.6216 44.9854 73.6836 44.8358C73.7455 44.6862 73.7774 44.5259 73.7774 44.3639ZM44.2105 33.8927V28.9655H54.0655V33.8932L44.2105 33.8927ZM39.2827 58.5314H31.8911V53.6032H39.2827V58.5314ZM66.3844 58.5314H58.9932V53.6032H66.3844V58.5314Z" fill="white"/>
<defs>
<linearGradient id="paint0_linear_9_246" x1="91.924" y1="73.99" x2="3.49987e-06" y2="29.498" gradientUnits="userSpaceOnUse">
<stop stop-color="#5FC3FF"/>
<stop offset="1" stop-color="#93BCD4"/>
</linearGradient>
</defs>
</svg>
