<svg width="98" height="98" viewBox="0 0 98 98" fill="none" xmlns="http://www.w3.org/2000/svg">
<path d="M49 98C76.062 98 98 76.062 98 49C98 21.938 76.062 0 49 0C21.938 0 0 21.938 0 49C0 76.062 21.938 98 49 98Z" fill="url(#paint0_linear_9_245)"/>
<path d="M70.6354 31.3063C70.4724 31.3067 70.3109 31.338 70.1597 31.3988L56.5816 36.4162L42.8477 31.5684C41.8103 31.2231 40.6896 31.2192 39.6498 31.5573L27.5269 35.7737C27.0525 35.9634 26.6458 36.2911 26.3595 36.7143C26.0731 37.1375 25.9202 37.6369 25.9206 38.1478V65.7996C25.9199 66.0086 25.9707 66.2146 26.0684 66.3994C26.1661 66.5843 26.3077 66.7422 26.4808 66.8595C26.654 66.9767 26.8532 67.0495 27.0611 67.0716C27.269 67.0937 27.4791 67.0644 27.673 66.9862L41.2506 61.9665L54.984 66.8138C56.0212 67.1599 57.1422 67.1641 58.182 66.8258L70.3048 62.609C70.7791 62.4195 71.1856 62.0921 71.4719 61.6692C71.7583 61.2464 71.9113 60.7474 71.9112 60.2367V32.5854C71.9112 32.2467 71.7769 31.9219 71.5377 31.6821C71.2985 31.4423 70.974 31.3072 70.6354 31.3063ZM43.8056 35.971L54.0262 39.5809V62.4121L43.8056 58.8041V35.971ZM29.7527 62.1306V39.0567L39.9734 35.5014V58.3529L39.9221 58.3714L29.7527 62.1306ZM68.079 59.3256L57.8584 62.879V40.0302L57.9097 40.0112L68.0795 36.253L68.079 59.3256Z" fill="white"/>
<defs>
<linearGradient id="paint0_linear_9_245" x1="91.924" y1="73.99" x2="3.49987e-06" y2="29.498" gradientUnits="userSpaceOnUse">
<stop stop-color="#5FC3FF"/>
<stop offset="1" stop-color="#93BCD4"/>
</linearGradient>
</defs>
</svg>
