<svg width="98" height="98" viewBox="0 0 98 98" fill="none" xmlns="http://www.w3.org/2000/svg">
<path d="M49 98C76.062 98 98 76.062 98 49C98 21.938 76.062 0 49 0C21.938 0 0 21.938 0 49C0 76.062 21.938 98 49 98Z" fill="url(#paint0_linear_9_244)"/>
<path d="M67.5483 29.5848H30.5145C29.5324 29.5851 28.5906 29.9753 27.8962 30.6698C27.2018 31.3642 26.8115 32.306 26.8113 33.288V57.9776C26.8115 58.9596 27.2018 59.9014 27.8962 60.5958C28.5906 61.2903 29.5324 61.6805 30.5145 61.6808H45.3282L44.094 65.384H38.5385C38.2928 65.3801 38.0489 65.4251 37.8209 65.5164C37.5928 65.6077 37.3852 65.7435 37.2101 65.9158C37.0351 66.0881 36.896 66.2936 36.8011 66.5201C36.7062 66.7467 36.6574 66.9899 36.6574 67.2356C36.6574 67.4812 36.7062 67.7244 36.8011 67.951C36.896 68.1776 37.0351 68.383 37.2101 68.5553C37.3852 68.7276 37.5928 68.8634 37.8209 68.9547C38.0489 69.046 38.2928 69.091 38.5385 69.0872H59.5252C59.7709 69.091 60.0148 69.046 60.2429 68.9547C60.4709 68.8634 60.6785 68.7276 60.8536 68.5553C61.0286 68.383 61.1677 68.1776 61.2626 67.951C61.3575 67.7244 61.4063 67.4812 61.4063 67.2356C61.4063 66.9899 61.3575 66.7467 61.2626 66.5201C61.1677 66.2936 61.0286 66.0881 60.8536 65.9158C60.6785 65.7435 60.4709 65.6077 60.2429 65.5164C60.0148 65.4251 59.7709 65.3801 59.5252 65.384H53.9693L52.7351 61.6808H67.5483C68.5304 61.6805 69.4722 61.2903 70.1666 60.5958C70.861 59.9014 71.2513 58.9596 71.2515 57.9776V33.288C71.2513 32.306 70.861 31.3642 70.1666 30.6698C69.4722 29.9753 68.5304 29.5851 67.5483 29.5848V29.5848ZM66.3141 56.7429H31.7492V34.5227H66.3141V56.7429Z" fill="white"/>
<defs>
<linearGradient id="paint0_linear_9_244" x1="91.924" y1="73.99" x2="3.49987e-06" y2="29.498" gradientUnits="userSpaceOnUse">
<stop stop-color="#5FC3FF"/>
<stop offset="1" stop-color="#93BCD4"/>
</linearGradient>
</defs>
</svg>
